STARTFONT 2.1
COMMENT Recovered from ar1.1:TR10B 2 (Xerox Alto CONVERT font source (AL) recovered from MIT CADR AR1 ARC!!!)
FONT MIT-CADR-TR10B-AL-AR1
SIZE 12 72 72
FONTBOUNDINGBOX 14 12 0 -4
STARTPROPERTIES 2
FONT_ASCENT 8
FONT_DESCENT 4
ENDPROPERTIES
CHARS 128
STARTCHAR C0000
ENCODING -1 0
SWIDTH 0 0
DWIDTH 0 0
BBX 0 12 0 -4
BITMAP
00
00
00
00
00
00
00
00
00
00
00
00
ENDCHAR
STARTCHAR C0001
ENCODING -1 1
SWIDTH 0 0
DWIDTH 0 0
BBX 0 12 0 -4
BITMAP
00
00
00
00
00
00
00
00
00
00
00
00
ENDCHAR
STARTCHAR C0002
ENCODING -1 2
SWIDTH 0 0
DWIDTH 0 0
BBX 0 12 0 -4
BITMAP
00
00
00
00
00
00
00
00
00
00
00
00
ENDCHAR
STARTCHAR C0003
ENCODING -1 3
SWIDTH 0 0
DWIDTH 0 0
BBX 0 12 0 -4
BITMAP
00
00
00
00
00
00
00
00
00
00
00
00
ENDCHAR
STARTCHAR C0004
ENCODING -1 4
SWIDTH 0 0
DWIDTH 0 0
BBX 0 12 0 -4
BITMAP
00
00
00
00
00
00
00
00
00
00
00
00
ENDCHAR
STARTCHAR C0005
ENCODING -1 5
SWIDTH 0 0
DWIDTH 0 0
BBX 0 12 0 -4
BITMAP
00
00
00
00
00
00
00
00
00
00
00
00
ENDCHAR
STARTCHAR C0006
ENCODING -1 6
SWIDTH 0 0
DWIDTH 0 0
BBX 0 12 0 -4
BITMAP
00
00
00
00
00
00
00
00
00
00
00
00
ENDCHAR
STARTCHAR C0007
ENCODING -1 7
SWIDTH 0 0
DWIDTH 0 0
BBX 0 12 0 -4
BITMAP
00
00
00
00
00
00
00
00
00
00
00
00
ENDCHAR
STARTCHAR C0008
ENCODING -1 8
SWIDTH 0 0
DWIDTH 0 0
BBX 0 12 0 -4
BITMAP
00
00
00
00
00
00
00
00
00
00
00
00
ENDCHAR
STARTCHAR C0009
ENCODING -1 9
SWIDTH 0 0
DWIDTH 0 0
BBX 0 12 0 -4
BITMAP
00
00
00
00
00
00
00
00
00
00
00
00
ENDCHAR
STARTCHAR C000A
ENCODING -1 10
SWIDTH 0 0
DWIDTH 0 0
BBX 0 12 0 -4
BITMAP
00
00
00
00
00
00
00
00
00
00
00
00
ENDCHAR
STARTCHAR C000B
ENCODING -1 11
SWIDTH 0 0
DWIDTH 0 0
BBX 0 12 0 -4
BITMAP
00
00
00
00
00
00
00
00
00
00
00
00
ENDCHAR
STARTCHAR C000C
ENCODING -1 12
SWIDTH 0 0
DWIDTH 0 0
BBX 0 12 0 -4
BITMAP
00
00
00
00
00
00
00
00
00
00
00
00
ENDCHAR
STARTCHAR C000D
ENCODING -1 13
SWIDTH 0 0
DWIDTH 0 0
BBX 0 12 0 -4
BITMAP
00
00
00
00
00
00
00
00
00
00
00
00
ENDCHAR
STARTCHAR C000E
ENCODING -1 14
SWIDTH 0 0
DWIDTH 0 0
BBX 0 12 0 -4
BITMAP
00
00
00
00
00
00
00
00
00
00
00
00
ENDCHAR
STARTCHAR C000F
ENCODING -1 15
SWIDTH 0 0
DWIDTH 0 0
BBX 0 12 0 -4
BITMAP
00
00
00
00
00
00
00
00
00
00
00
00
ENDCHAR
STARTCHAR C0010
ENCODING -1 16
SWIDTH 0 0
DWIDTH 0 0
BBX 0 12 0 -4
BITMAP
00
00
00
00
00
00
00
00
00
00
00
00
ENDCHAR
STARTCHAR C0011
ENCODING -1 17
SWIDTH 0 0
DWIDTH 0 0
BBX 0 12 0 -4
BITMAP
00
00
00
00
00
00
00
00
00
00
00
00
ENDCHAR
STARTCHAR C0012
ENCODING -1 18
SWIDTH 0 0
DWIDTH 0 0
BBX 0 12 0 -4
BITMAP
00
00
00
00
00
00
00
00
00
00
00
00
ENDCHAR
STARTCHAR C0013
ENCODING -1 19
SWIDTH 0 0
DWIDTH 0 0
BBX 0 12 0 -4
BITMAP
00
00
00
00
00
00
00
00
00
00
00
00
ENDCHAR
STARTCHAR C0014
ENCODING -1 20
SWIDTH 0 0
DWIDTH 0 0
BBX 0 12 0 -4
BITMAP
00
00
00
00
00
00
00
00
00
00
00
00
ENDCHAR
STARTCHAR C0015
ENCODING -1 21
SWIDTH 0 0
DWIDTH 0 0
BBX 0 12 0 -4
BITMAP
00
00
00
00
00
00
00
00
00
00
00
00
ENDCHAR
STARTCHAR C0016
ENCODING -1 22
SWIDTH 0 0
DWIDTH 0 0
BBX 0 12 0 -4
BITMAP
00
00
00
00
00
00
00
00
00
00
00
00
ENDCHAR
STARTCHAR C0017
ENCODING -1 23
SWIDTH 0 0
DWIDTH 0 0
BBX 0 12 0 -4
BITMAP
00
00
00
00
00
00
00
00
00
00
00
00
ENDCHAR
STARTCHAR C0018
ENCODING -1 24
SWIDTH 0 0
DWIDTH 0 0
BBX 14 12 0 -4
BITMAP
0000
0000
0000
0000
0000
0000
0000
0000
0000
0000
0000
FFFC
ENDCHAR
STARTCHAR C0019
ENCODING -1 25
SWIDTH 0 0
DWIDTH 0 0
BBX 0 12 0 -4
BITMAP
00
00
00
00
00
00
00
00
00
00
00
00
ENDCHAR
STARTCHAR C001A
ENCODING -1 26
SWIDTH 0 0
DWIDTH 0 0
BBX 0 12 0 -4
BITMAP
00
00
00
00
00
00
00
00
00
00
00
00
ENDCHAR
STARTCHAR C001B
ENCODING -1 27
SWIDTH 0 0
DWIDTH 0 0
BBX 0 12 0 -4
BITMAP
00
00
00
00
00
00
00
00
00
00
00
00
ENDCHAR
STARTCHAR C001C
ENCODING -1 28
SWIDTH 0 0
DWIDTH 0 0
BBX 0 12 0 -4
BITMAP
00
00
00
00
00
00
00
00
00
00
00
00
ENDCHAR
STARTCHAR C001D
ENCODING -1 29
SWIDTH 0 0
DWIDTH 0 0
BBX 0 12 0 -4
BITMAP
00
00
00
00
00
00
00
00
00
00
00
00
ENDCHAR
STARTCHAR C001E
ENCODING -1 30
SWIDTH 0 0
DWIDTH 0 0
BBX 0 12 0 -4
BITMAP
00
00
00
00
00
00
00
00
00
00
00
00
ENDCHAR
STARTCHAR C001F
ENCODING -1 31
SWIDTH 0 0
DWIDTH 0 0
BBX 0 12 0 -4
BITMAP
00
00
00
00
00
00
00
00
00
00
00
00
ENDCHAR
STARTCHAR C0020
ENCODING -1 32
SWIDTH 417 0
DWIDTH 5 0
BBX 5 12 0 -4
BITMAP
00
00
00
00
00
00
00
00
00
00
00
00
ENDCHAR
STARTCHAR C0021
ENCODING -1 33
SWIDTH 333 0
DWIDTH 4 0
BBX 4 12 0 -4
BITMAP
00
60
60
60
60
60
00
60
60
00
00
00
ENDCHAR
STARTCHAR C0022
ENCODING -1 34
SWIDTH 583 0
DWIDTH 7 0
BBX 7 12 0 -4
BITMAP
00
6C
6C
6C
00
00
00
00
00
00
00
00
ENDCHAR
STARTCHAR C0023
ENCODING -1 35
SWIDTH 833 0
DWIDTH 10 0
BBX 10 12 0 -4
BITMAP
0000
0900
0900
3F80
1200
1200
7F00
2400
2400
0000
0000
0000
ENDCHAR
STARTCHAR C0024
ENCODING -1 36
SWIDTH 667 0
DWIDTH 8 0
BBX 8 12 0 -4
BITMAP
08
3E
6A
78
3C
1E
0E
6A
7C
08
00
00
ENDCHAR
STARTCHAR C0025
ENCODING -1 37
SWIDTH 917 0
DWIDTH 11 0
BBX 11 12 0 -4
BITMAP
0000
1F00
2900
2A00
3200
04C0
0540
0940
0980
0000
0000
0000
ENDCHAR
STARTCHAR C0026
ENCODING -1 38
SWIDTH 833 0
DWIDTH 10 0
BBX 10 12 0 -4
BITMAP
0000
0C00
1A00
1A00
1C80
3D80
6F00
6600
3F80
0000
0000
0000
ENDCHAR
STARTCHAR C0027
ENCODING -1 39
SWIDTH 333 0
DWIDTH 4 0
BBX 4 12 0 -4
BITMAP
00
60
60
60
00
00
00
00
00
00
00
00
ENDCHAR
STARTCHAR C0028
ENCODING -1 40
SWIDTH 500 0
DWIDTH 6 0
BBX 6 12 0 -4
BITMAP
00
18
30
30
60
60
60
60
60
30
30
18
ENDCHAR
STARTCHAR C0029
ENCODING -1 41
SWIDTH 500 0
DWIDTH 6 0
BBX 6 12 0 -4
BITMAP
00
60
30
30
18
18
18
18
18
30
30
60
ENDCHAR
STARTCHAR C002A
ENCODING -1 42
SWIDTH 583 0
DWIDTH 7 0
BBX 7 12 0 -4
BITMAP
10
54
38
54
10
00
00
00
00
00
00
00
ENDCHAR
STARTCHAR C002B
ENCODING -1 43
SWIDTH 667 0
DWIDTH 8 0
BBX 8 12 0 -4
BITMAP
00
00
00
18
18
7E
7E
18
18
00
00
00
ENDCHAR
STARTCHAR C002C
ENCODING -1 44
SWIDTH 333 0
DWIDTH 4 0
BBX 4 12 0 -4
BITMAP
00
00
00
00
00
00
00
60
60
20
20
40
ENDCHAR
STARTCHAR C002D
ENCODING -1 45
SWIDTH 583 0
DWIDTH 7 0
BBX 7 12 0 -4
BITMAP
00
00
00
00
7C
7C
00
00
00
00
00
00
ENDCHAR
STARTCHAR C002E
ENCODING -1 46
SWIDTH 333 0
DWIDTH 4 0
BBX 4 12 0 -4
BITMAP
00
00
00
00
00
00
00
60
60
00
00
00
ENDCHAR
STARTCHAR C002F
ENCODING -1 47
SWIDTH 583 0
DWIDTH 7 0
BBX 7 12 0 -4
BITMAP
00
0C
0C
18
18
30
30
60
60
00
00
00
ENDCHAR
STARTCHAR C0030
ENCODING -1 48
SWIDTH 583 0
DWIDTH 7 0
BBX 7 12 0 -4
BITMAP
00
38
6C
6C
6C
6C
6C
6C
38
00
00
00
ENDCHAR
STARTCHAR C0031
ENCODING -1 49
SWIDTH 583 0
DWIDTH 7 0
BBX 7 12 0 -4
BITMAP
00
18
38
18
18
18
18
18
3C
00
00
00
ENDCHAR
STARTCHAR C0032
ENCODING -1 50
SWIDTH 583 0
DWIDTH 7 0
BBX 7 12 0 -4
BITMAP
00
38
5C
0C
0C
18
30
64
7C
00
00
00
ENDCHAR
STARTCHAR C0033
ENCODING -1 51
SWIDTH 583 0
DWIDTH 7 0
BBX 7 12 0 -4
BITMAP
00
38
4C
0C
18
0C
0C
4C
78
00
00
00
ENDCHAR
STARTCHAR C0034
ENCODING -1 52
SWIDTH 583 0
DWIDTH 7 0
BBX 7 12 0 -4
BITMAP
00
0C
1C
1C
2C
6C
7E
0C
0C
00
00
00
ENDCHAR
STARTCHAR C0035
ENCODING -1 53
SWIDTH 583 0
DWIDTH 7 0
BBX 7 12 0 -4
BITMAP
00
3C
38
60
78
1C
0C
4C
78
00
00
00
ENDCHAR
STARTCHAR C0036
ENCODING -1 54
SWIDTH 583 0
DWIDTH 7 0
BBX 7 12 0 -4
BITMAP
00
1C
20
78
6C
6C
6C
6C
38
00
00
00
ENDCHAR
STARTCHAR C0037
ENCODING -1 55
SWIDTH 583 0
DWIDTH 7 0
BBX 7 12 0 -4
BITMAP
00
3C
7C
4C
08
18
10
30
30
00
00
00
ENDCHAR
STARTCHAR C0038
ENCODING -1 56
SWIDTH 583 0
DWIDTH 7 0
BBX 7 12 0 -4
BITMAP
00
38
6C
6C
38
6C
6C
6C
38
00
00
00
ENDCHAR
STARTCHAR C0039
ENCODING -1 57
SWIDTH 583 0
DWIDTH 7 0
BBX 7 12 0 -4
BITMAP
00
38
6C
6C
6C
3C
0C
58
70
00
00
00
ENDCHAR
STARTCHAR C003A
ENCODING -1 58
SWIDTH 333 0
DWIDTH 4 0
BBX 4 12 0 -4
BITMAP
00
00
00
60
60
00
00
60
60
00
00
00
ENDCHAR
STARTCHAR C003B
ENCODING -1 59
SWIDTH 333 0
DWIDTH 4 0
BBX 4 12 0 -4
BITMAP
00
00
00
60
60
00
00
60
60
20
20
40
ENDCHAR
STARTCHAR C003C
ENCODING -1 60
SWIDTH 583 0
DWIDTH 7 0
BBX 7 12 0 -4
BITMAP
00
0C
18
30
60
60
30
18
0C
00
00
00
ENDCHAR
STARTCHAR C003D
ENCODING -1 61
SWIDTH 583 0
DWIDTH 7 0
BBX 7 12 0 -4
BITMAP
00
00
00
7C
7C
00
7C
7C
00
00
00
00
ENDCHAR
STARTCHAR C003E
ENCODING -1 62
SWIDTH 583 0
DWIDTH 7 0
BBX 7 12 0 -4
BITMAP
00
60
30
18
0C
0C
18
30
60
00
00
00
ENDCHAR
STARTCHAR C003F
ENCODING -1 63
SWIDTH 583 0
DWIDTH 7 0
BBX 7 12 0 -4
BITMAP
00
38
6C
0C
18
18
00
18
18
00
00
00
ENDCHAR
STARTCHAR C0040
ENCODING -1 64
SWIDTH 833 0
DWIDTH 10 0
BBX 10 12 0 -4
BITMAP
0000
1E00
2100
4C80
5280
5280
5280
4F00
2000
1F80
0000
0000
ENDCHAR
STARTCHAR C0041
ENCODING -1 65
SWIDTH 750 0
DWIDTH 9 0
BBX 9 12 0 -4
BITMAP
0000
1800
1800
3C00
2C00
2C00
7E00
4600
EF00
0000
0000
0000
ENDCHAR
STARTCHAR C0042
ENCODING -1 66
SWIDTH 667 0
DWIDTH 8 0
BBX 8 12 0 -4
BITMAP
00
FC
66
66
7C
66
66
66
FC
00
00
00
ENDCHAR
STARTCHAR C0043
ENCODING -1 67
SWIDTH 667 0
DWIDTH 8 0
BBX 8 12 0 -4
BITMAP
00
3A
66
C2
C0
C0
C0
62
3C
00
00
00
ENDCHAR
STARTCHAR C0044
ENCODING -1 68
SWIDTH 750 0
DWIDTH 9 0
BBX 9 12 0 -4
BITMAP
0000
FC00
6600
6300
6300
6300
6300
6600
FC00
0000
0000
0000
ENDCHAR
STARTCHAR C0045
ENCODING -1 69
SWIDTH 667 0
DWIDTH 8 0
BBX 8 12 0 -4
BITMAP
00
FE
62
68
78
68
62
62
FE
00
00
00
ENDCHAR
STARTCHAR C0046
ENCODING -1 70
SWIDTH 667 0
DWIDTH 8 0
BBX 8 12 0 -4
BITMAP
00
FE
62
68
78
68
60
60
F0
00
00
00
ENDCHAR
STARTCHAR C0047
ENCODING -1 71
SWIDTH 750 0
DWIDTH 9 0
BBX 9 12 0 -4
BITMAP
0000
3A00
6600
C200
C000
CF00
C600
6600
3C00
0000
0000
0000
ENDCHAR
STARTCHAR C0048
ENCODING -1 72
SWIDTH 833 0
DWIDTH 10 0
BBX 10 12 0 -4
BITMAP
0000
F780
6300
6300
7F00
6300
6300
6300
F780
0000
0000
0000
ENDCHAR
STARTCHAR C0049
ENCODING -1 73
SWIDTH 417 0
DWIDTH 5 0
BBX 5 12 0 -4
BITMAP
00
F0
60
60
60
60
60
60
F0
00
00
00
ENDCHAR
STARTCHAR C004A
ENCODING -1 74
SWIDTH 583 0
DWIDTH 7 0
BBX 7 12 0 -4
BITMAP
00
3C
18
18
18
18
18
D8
F0
00
00
00
ENDCHAR
STARTCHAR C004B
ENCODING -1 75
SWIDTH 750 0
DWIDTH 9 0
BBX 9 12 0 -4
BITMAP
0000
F600
6400
6800
7000
7800
6C00
6600
F700
0000
0000
0000
ENDCHAR
STARTCHAR C004C
ENCODING -1 76
SWIDTH 667 0
DWIDTH 8 0
BBX 8 12 0 -4
BITMAP
00
F0
60
60
60
60
62
62
FE
00
00
00
ENDCHAR
STARTCHAR C004D
ENCODING -1 77
SWIDTH 1000 0
DWIDTH 12 0
BBX 12 12 0 -4
BITMAP
0000
F0E0
71C0
79C0
5AC0
5AC0
4CC0
4CC0
EDE0
0000
0000
0000
ENDCHAR
STARTCHAR C004E
ENCODING -1 78
SWIDTH 833 0
DWIDTH 10 0
BBX 10 12 0 -4
BITMAP
0000
F380
7100
5900
5900
4D00
4D00
4700
E700
0000
0000
0000
ENDCHAR
STARTCHAR C004F
ENCODING -1 79
SWIDTH 750 0
DWIDTH 9 0
BBX 9 12 0 -4
BITMAP
0000
3C00
6600
C300
C300
C300
C300
6600
3C00
0000
0000
0000
ENDCHAR
STARTCHAR C0050
ENCODING -1 80
SWIDTH 667 0
DWIDTH 8 0
BBX 8 12 0 -4
BITMAP
00
FC
66
66
66
7C
60
60
F0
00
00
00
ENDCHAR
STARTCHAR C0051
ENCODING -1 81
SWIDTH 750 0
DWIDTH 9 0
BBX 9 12 0 -4
BITMAP
0000
3C00
6600
C300
C300
C300
C300
6600
3C00
1800
0E00
0000
ENDCHAR
STARTCHAR C0052
ENCODING -1 82
SWIDTH 750 0
DWIDTH 9 0
BBX 9 12 0 -4
BITMAP
0000
FC00
6600
6600
7C00
6800
6C00
6600
F700
0000
0000
0000
ENDCHAR
STARTCHAR C0053
ENCODING -1 83
SWIDTH 583 0
DWIDTH 7 0
BBX 7 12 0 -4
BITMAP
00
7C
C4
E0
78
1C
8C
CC
B8
00
00
00
ENDCHAR
STARTCHAR C0054
ENCODING -1 84
SWIDTH 750 0
DWIDTH 9 0
BBX 9 12 0 -4
BITMAP
0000
FF00
9900
1800
1800
1800
1800
1800
3C00
0000
0000
0000
ENDCHAR
STARTCHAR C0055
ENCODING -1 85
SWIDTH 833 0
DWIDTH 10 0
BBX 10 12 0 -4
BITMAP
0000
F380
6100
6100
6100
6100
6100
7300
3E00
0000
0000
0000
ENDCHAR
STARTCHAR C0056
ENCODING -1 86
SWIDTH 833 0
DWIDTH 10 0
BBX 10 12 0 -4
BITMAP
0000
F380
6100
3200
3200
3400
1C00
1C00
0800
0000
0000
0000
ENDCHAR
STARTCHAR C0057
ENCODING -1 87
SWIDTH 1167 0
DWIDTH 14 0
BBX 14 12 0 -4
BITMAP
0000
F7B8
6310
33A0
35A0
35A0
18C0
18C0
18C0
0000
0000
0000
ENDCHAR
STARTCHAR C0058
ENCODING -1 88
SWIDTH 750 0
DWIDTH 9 0
BBX 9 12 0 -4
BITMAP
0000
F700
6200
3400
1800
1800
2C00
4600
EF00
0000
0000
0000
ENDCHAR
STARTCHAR C0059
ENCODING -1 89
SWIDTH 750 0
DWIDTH 9 0
BBX 9 12 0 -4
BITMAP
0000
F700
6200
3400
3C00
1800
1800
1800
3C00
0000
0000
0000
ENDCHAR
STARTCHAR C005A
ENCODING -1 90
SWIDTH 583 0
DWIDTH 7 0
BBX 7 12 0 -4
BITMAP
00
FC
8C
18
30
30
60
C4
FC
00
00
00
ENDCHAR
STARTCHAR C005B
ENCODING -1 91
SWIDTH 500 0
DWIDTH 6 0
BBX 6 12 0 -4
BITMAP
00
78
60
60
60
60
60
60
60
60
60
78
ENDCHAR
STARTCHAR C005C
ENCODING -1 92
SWIDTH 583 0
DWIDTH 7 0
BBX 7 12 0 -4
BITMAP
00
60
60
30
30
18
18
0C
0C
00
00
00
ENDCHAR
STARTCHAR C005D
ENCODING -1 93
SWIDTH 500 0
DWIDTH 6 0
BBX 6 12 0 -4
BITMAP
00
78
18
18
18
18
18
18
18
18
18
78
ENDCHAR
STARTCHAR C005E
ENCODING -1 94
SWIDTH 667 0
DWIDTH 8 0
BBX 8 12 0 -4
BITMAP
00
00
18
3C
5A
18
18
18
00
00
00
00
ENDCHAR
STARTCHAR C005F
ENCODING -1 95
SWIDTH 667 0
DWIDTH 8 0
BBX 8 12 0 -4
BITMAP
00
00
10
20
7E
7E
20
10
00
00
00
00
ENDCHAR
STARTCHAR C0060
ENCODING -1 96
SWIDTH 0 0
DWIDTH 0 0
BBX 0 12 0 -4
BITMAP
00
00
00
00
00
00
00
00
00
00
00
00
ENDCHAR
STARTCHAR C0061
ENCODING -1 97
SWIDTH 667 0
DWIDTH 8 0
BBX 8 12 0 -4
BITMAP
00
00
00
38
0C
3C
6C
6C
3E
00
00
00
ENDCHAR
STARTCHAR C0062
ENCODING -1 98
SWIDTH 583 0
DWIDTH 7 0
BBX 7 12 0 -4
BITMAP
00
E0
60
78
6C
6C
6C
6C
58
00
00
00
ENDCHAR
STARTCHAR C0063
ENCODING -1 99
SWIDTH 500 0
DWIDTH 6 0
BBX 6 12 0 -4
BITMAP
00
00
00
78
C8
C0
C0
C8
70
00
00
00
ENDCHAR
STARTCHAR C0064
ENCODING -1 100
SWIDTH 583 0
DWIDTH 7 0
BBX 7 12 0 -4
BITMAP
00
38
18
78
D8
D8
D8
D8
7C
00
00
00
ENDCHAR
STARTCHAR C0065
ENCODING -1 101
SWIDTH 500 0
DWIDTH 6 0
BBX 6 12 0 -4
BITMAP
00
00
00
70
D8
F8
C0
C8
70
00
00
00
ENDCHAR
STARTCHAR C0066
ENCODING -1 102
SWIDTH 500 0
DWIDTH 6 0
BBX 6 12 0 -4
BITMAP
00
38
60
F0
60
60
60
60
F0
00
00
00
ENDCHAR
STARTCHAR C0067
ENCODING -1 103
SWIDTH 667 0
DWIDTH 8 0
BBX 8 12 0 -4
BITMAP
00
00
00
3E
6C
6C
78
20
7C
FE
C6
7C
ENDCHAR
STARTCHAR C0068
ENCODING -1 104
SWIDTH 667 0
DWIDTH 8 0
BBX 8 12 0 -4
BITMAP
00
E0
60
78
6C
6C
6C
6C
EE
00
00
00
ENDCHAR
STARTCHAR C0069
ENCODING -1 105
SWIDTH 417 0
DWIDTH 5 0
BBX 5 12 0 -4
BITMAP
60
60
00
E0
60
60
60
60
F0
00
00
00
ENDCHAR
STARTCHAR C006A
ENCODING -1 106
SWIDTH 417 0
DWIDTH 5 0
BBX 5 12 0 -4
BITMAP
30
30
00
70
30
30
30
30
30
30
B0
E0
ENDCHAR
STARTCHAR C006B
ENCODING -1 107
SWIDTH 667 0
DWIDTH 8 0
BBX 8 12 0 -4
BITMAP
00
E0
60
6C
68
70
78
6C
EE
00
00
00
ENDCHAR
STARTCHAR C006C
ENCODING -1 108
SWIDTH 417 0
DWIDTH 5 0
BBX 5 12 0 -4
BITMAP
00
E0
60
60
60
60
60
60
F0
00
00
00
ENDCHAR
STARTCHAR C006D
ENCODING -1 109
SWIDTH 917 0
DWIDTH 11 0
BBX 11 12 0 -4
BITMAP
0000
0000
0000
FF00
6D80
6D80
6D80
6D80
EDC0
0000
0000
0000
ENDCHAR
STARTCHAR C006E
ENCODING -1 110
SWIDTH 667 0
DWIDTH 8 0
BBX 8 12 0 -4
BITMAP
00
00
00
F8
6C
6C
6C
6C
EE
00
00
00
ENDCHAR
STARTCHAR C006F
ENCODING -1 111
SWIDTH 500 0
DWIDTH 6 0
BBX 6 12 0 -4
BITMAP
00
00
00
70
D8
D8
D8
D8
70
00
00
00
ENDCHAR
STARTCHAR C0070
ENCODING -1 112
SWIDTH 583 0
DWIDTH 7 0
BBX 7 12 0 -4
BITMAP
00
00
00
F8
6C
6C
6C
6C
78
60
60
F0
ENDCHAR
STARTCHAR C0071
ENCODING -1 113
SWIDTH 583 0
DWIDTH 7 0
BBX 7 12 0 -4
BITMAP
00
00
00
3C
6C
6C
6C
6C
3C
0C
0C
1E
ENDCHAR
STARTCHAR C0072
ENCODING -1 114
SWIDTH 583 0
DWIDTH 7 0
BBX 7 12 0 -4
BITMAP
00
00
00
FC
6C
60
60
60
F0
00
00
00
ENDCHAR
STARTCHAR C0073
ENCODING -1 115
SWIDTH 417 0
DWIDTH 5 0
BBX 5 12 0 -4
BITMAP
00
00
00
70
C0
E0
70
30
E0
00
00
00
ENDCHAR
STARTCHAR C0074
ENCODING -1 116
SWIDTH 500 0
DWIDTH 6 0
BBX 6 12 0 -4
BITMAP
00
20
60
F0
60
60
60
68
38
00
00
00
ENDCHAR
STARTCHAR C0075
ENCODING -1 117
SWIDTH 667 0
DWIDTH 8 0
BBX 8 12 0 -4
BITMAP
00
00
00
EC
6C
6C
6C
6C
7E
00
00
00
ENDCHAR
STARTCHAR C0076
ENCODING -1 118
SWIDTH 750 0
DWIDTH 9 0
BBX 9 12 0 -4
BITMAP
0000
0000
0000
F700
6200
3400
3400
1800
1800
0000
0000
0000
ENDCHAR
STARTCHAR C0077
ENCODING -1 119
SWIDTH 1000 0
DWIDTH 12 0
BBX 12 12 0 -4
BITMAP
0000
0000
0000
F6E0
6640
3680
3F80
1B00
1B00
0000
0000
0000
ENDCHAR
STARTCHAR C0078
ENCODING -1 120
SWIDTH 583 0
DWIDTH 7 0
BBX 7 12 0 -4
BITMAP
00
00
00
EC
68
30
38
78
CC
00
00
00
ENDCHAR
STARTCHAR C0079
ENCODING -1 121
SWIDTH 667 0
DWIDTH 8 0
BBX 8 12 0 -4
BITMAP
00
00
00
F6
64
6C
38
38
10
D0
E0
00
ENDCHAR
STARTCHAR C007A
ENCODING -1 122
SWIDTH 500 0
DWIDTH 6 0
BBX 6 12 0 -4
BITMAP
00
00
00
F8
98
30
60
C8
F8
00
00
00
ENDCHAR
STARTCHAR C007B
ENCODING -1 123
SWIDTH 667 0
DWIDTH 8 0
BBX 8 12 0 -4
BITMAP
00
0E
18
18
18
30
60
30
18
18
18
0E
ENDCHAR
STARTCHAR C007C
ENCODING -1 124
SWIDTH 333 0
DWIDTH 4 0
BBX 4 12 0 -4
BITMAP
00
60
60
60
60
60
60
60
60
60
60
60
ENDCHAR
STARTCHAR C007D
ENCODING -1 125
SWIDTH 667 0
DWIDTH 8 0
BBX 8 12 0 -4
BITMAP
00
70
18
18
18
0C
06
0C
18
18
18
70
ENDCHAR
STARTCHAR C007E
ENCODING -1 126
SWIDTH 750 0
DWIDTH 9 0
BBX 9 12 0 -4
BITMAP
0000
0000
0000
3300
7F00
6600
0000
0000
0000
0000
0000
0000
ENDCHAR
STARTCHAR C007F
ENCODING -1 127
SWIDTH 0 0
DWIDTH 0 0
BBX 0 12 0 -4
BITMAP
00
00
00
00
00
00
00
00
00
00
00
00
ENDCHAR
ENDFONT
